OpenSim_Sub06_CSBaseline_LCS.mot
version=1
nRows=51
nColumns=11
inDegrees=no
endheader
time	Bot_Shank	2nd_Bot_Shank	2nd_Top_Shank	Top_Shank	Bot_Thigh	Med_Thigh	Top_Thigh	BNOx	BNOy	BNOZ
63.69000000	10390.84769624	10395.39782383	10448.32924448	11432.22872242	12881.66700350	13892.27588967	14555.59008934	158.76900078	-70.63155410	-243.35725674
63.70000000	10391.49881103	10398.47553817	10445.24743848	11413.05405486	12862.77034848	13892.30703415	14549.16899738	162.26565720	-70.21866106	-218.99348441
63.71000000	10400	10413	10459	11400	12859	13902	14558	166.19000000	-69.50000000	-179.25000000
63.72000000	10416.92726411	10439.71981747	10490.70663786	11394.01665122	12871.86777011	13921.95084990	14583.30606516	170.52359405	-68.47398044	-123.43654290
63.73000000	10439.99056216	10475.59853345	10535.88520143	11394.81839715	12898.30621894	13951.22526810	14621.53932787	174.99807499	-67.25545669	-56.44330277
63.74000000	10466.18334240	10516.65342446	10588.65307523	11401.81070024	12934.10309365	13988.50634424	14667.95921492	179.28259614	-65.98839422	15.44441814
63.75000000	10492.49905308	10558.90176705	10643.12764377	11414.39902294	12975.04614139	14032.47716796	14717.82515309	183.04631083	-64.81675853	85.94131760
63.76000000	10515.93114247	10598.36083774	10693.42629156	11431.98882771	13016.92310933	14081.82082891	14766.39656918	185.95837237	-63.88451510	148.76209336
63.77000000	10533.93495854	10631.62691951	10734.52548521	11453.90280453	13056.03762533	14135.15426856	14809.56776154	187.74830839	-63.31119586	198.52131806
63.78000000	10546.46416279	10658.42801329	10766.04827672	11479.01594553	13091.48360210	14190.73664759	14846.66690882	188.47219783	-63.08417705	234.70078872
63.79000000	10554.31321360	10679.54608649	10789.18150674	11506.05257198	13123.29401090	14246.70671702	14878.17784752	188.29601907	-63.14635844	258.42034619
63.80000000	10558.27720296	10695.76390073	10805.11319437	11533.73689163	13151.50253068	14301.20313717	14904.58528505	187.38583333	-63.44060630	270.80106572
63.81000000	10559.15122286	10707.86421766	10815.03135873	11560.79311222	13176.14284036	14352.36456833	14926.37392881	185.90770182	-63.90978688	272.96402255
63.82000000	10557.73036528	10716.62979891	10820.12401892	11585.94544147	13197.24861888	14398.32967082	14944.02848620	184.02768574	-64.49676646	266.03029195
63.83000000	10554.80972222	10722.84340613	10821.57919403	11607.91808714	13214.85354517	14437.23710492	14958.03366461	181.91184631	-65.14441130	251.12094914
63.84000000	10551.18438566	10727.28780096	10820.58490318	11625.43525696	13228.99129817	14467.22553095	14968.87417145	179.72624474	-65.79558766	229.35706938
63.85000000	10547.64944759	10730.74574504	10818.32916547	11637.22115866	13239.69555680	14486.43360921	14977.03471411	177.63694223	-66.39316180	201.85972792
63.86000000	10545	10734	10816	11642	13247	14493	14983	175.81000000	-66.88000000	169.75000000
63.87000000	10543.84513301	10737.67665134	10814.54184959	11638.91621195	13250.95790035	14485.76523302	14987.20544894	174.37551984	-67.21190407	134.12938732
63.88000000	10544.04992931	10741.77508000	10813.92485191	11628.79511848	13251.70090505	14466.37731558	14989.88933045	173.31976591	-67.39641806	96.02109739
63.89000000	10545.29346973	10746.13799074	10813.87556832	11612.88226680	13249.38025492	14437.18612437	14991.24062648	172.59304293	-67.45402160	56.42876417
63.90000000	10547.25483508	10750.60808835	10814.12056021	11592.42320412	13244.14719081	14400.54153609	14991.44831899	172.14565565	-67.40519429	16.35602161
63.91000000	10549.61310620	10755.02807761	10814.38638895	11568.66347767	13236.15295357	14358.79342745	14990.70138992	171.92790879	-67.27041574	-23.19349632
63.92000000	10552.04736391	10759.24066331	10814.39961592	11542.84863465	13225.54878401	14314.29167514	14989.18882122	171.89010709	-67.07016558	-61.21615567
63.93000000	10554.23668903	10763.08855023	10813.88680250	11516.22422228	13212.48592300	14269.38615587	14987.09959484	171.98255529	-66.82492341	-96.70832247
63.94000000	10555.86016239	10766.41444314	10812.57451006	11490.03578777	13197.11561136	14226.42674633	14984.62269273	172.15555812	-66.55516885	-128.66636278
63.95000000	10556.59686481	10769.06104683	10810.18929997	11465.52887833	13179.58908993	14187.76332323	14981.94709684	172.35942032	-66.28138151	-156.08664263
63.96000000	10556.12587711	10770.87106608	10806.45773362	11443.94904117	13160.05759956	14155.74576327	14979.26178912	172.54444661	-66.02404101	-177.96552806
63.97000000	10554.20711479	10771.73554211	10801.19860721	11426.33429645	13138.74630545	14132.29224220	14976.73729146	172.66732645	-65.80072770	-193.52748971
63.98000000	10551.03771012	10771.80695722	10794.72959486	11412.60019619	13116.28021341	14116.98596072	14974.44427943	172.71928268	-65.61334048	-203.23076566
63.99000000	10546.96193886	10771.32578060	10787.53626591	11402.28453054	13093.41889391	14108.62429352	14972.41982571	172.70316027	-65.45850075	-207.94881317
64.00000000	10542.32418766	10770.53254777	10780.10431622	11394.92480498	13070.92201884	14106.00402313	14970.70097768	172.62181292	-65.33282591	-208.55540242
64.01000000	10537.46884316	10769.66779421	10772.91944166	11390.05852496	13049.54926007	14107.92193205	14969.32478271	172.47809434	-65.23293337	-205.92430360
64.02000000	10532.74029200	10768.97205544	10766.46733811	11387.22319597	13030.06028947	14113.17480281	14968.32828816	172.27485823	-65.15544053	-200.92928688
64.03000000	10528.48292081	10768.68586695	10761.23370143	11385.95632346	13013.21477892	14120.55941792	14967.74854141	172.01495831	-65.09696481	-194.44412243
64.04000000	10525.04111625	10769.04976425	10757.70422749	11385.79541291	12999.77240031	14128.87255989	14967.62258983	171.70124827	-65.05412361	-187.34258044
64.05000000	10522.75926495	10770.30428284	10756.36461215	11386.27796978	12990.49282550	14136.91101124	14967.98748078	171.33658183	-65.02353434	-180.49843109
64.06000000	10521.98175356	10772.68995822	10757.70055130	11386.94149955	12986.13572638	14143.47155449	14968.88026165	170.92381269	-65.00181441	-174.78544455
64.07000000	10523.00250846	10776.36699574	10762.03173527	11387.36108279	12987.24284936	14147.55976165	14970.31123701	170.46778207	-64.98604153	-170.92227738
64.08000000	10525.84252771	10781.06111266	10768.77996720	11387.31503545	12993.17723015	14149.31050096	14972.14606572	169.98408117	-64.97578310	-168.78861089
64.09000000	10530.43095647	10786.35180110	10777.06487010	11386.65007154	13002.90521433	14149.23870059	14974.20172667	169.49191905	-64.97144442	-167.98177276
64.10000000	10536.69687068	10791.81844299	10786.00583925	11385.21295659	13015.39284858	14147.85957506	14976.29516211	169.01050750	-64.97343142	-168.09887794
64.11000000	10544.56934628	10797.04042027	10794.72226993	11382.85045612	13029.60617954	14145.68833893	14978.24331427	168.55905831	-64.98215004	-168.73704134
64.12000000	10553.97745923	10801.59711488	10802.33355741	11379.40933567	13044.51125388	14143.24020674	14979.86312537	168.15678327	-64.99800619	-169.49337790
64.13000000	10564.80752411	10805.13474756	10808.09739111	11374.79799680	13059.14989726	14140.97338568	14981.00029064	167.81814946	-65.02130181	-170.01704495
64.14000000	10576.71456887	10807.66105545	10812.01946281	11369.25821672	13072.97380722	14139.03774269	14981.65602387	167.53196090	-65.05177624	-170.23868574
64.15000000	10589.27578287	10809.30544247	10814.35720135	11363.14396881	13085.57262197	14137.47937410	14981.88387799	167.27838479	-65.08897951	-170.18367641
64.16000000	10602.06829683	10810.19740426	10815.36822527	11356.80931100	13096.53608366	14136.34429803	14981.73744536	167.03758184	-65.13246150	-169.87746449
64.17000000	10614.66924148	10810.46643643	10815.31015311	11350.60830120	13105.45393444	14135.67853262	14981.27031834	166.78971276	-65.18177210	-169.34549750
64.18000000	10626.65574752	10810.24203462	10814.44060342	11344.89499735	13111.91591646	14135.52809600	14980.53608928	166.51493825	-65.23646118	-168.61322297
64.19000000	10637.60494567	10809.65369445	10813.01719472	11340.02345738	13115.51177188	14135.93900629	14979.58835056	166.19341902	-65.29607863	-167.70608843
